<?xml version="1.0" encoding="UTF-8" standalone="no"?>
<!-- Created with Inkscape (http://www.inkscape.org/) -->

<svg
   width="512"
   height="512"
   viewBox="0 0 512 512"
   version="1.1"
   id="svg1"
   xml:space="preserve"
   inkscape:export-filename="sensibo.on.svg"
   inkscape:export-xdpi="95.625"
   inkscape:export-ydpi="95.625"
   xmlns:inkscape="http://www.inkscape.org/namespaces/inkscape"
   xmlns:sodipodi="http://sodipodi.sourceforge.net/DTD/sodipodi-0.dtd"
   xmlns="http://www.w3.org/2000/svg"
   xmlns:svg="http://www.w3.org/2000/svg"><sodipodi:namedview
     id="namedview1"
     pagecolor="#505050"
     bordercolor="#eeeeee"
     borderopacity="1"
     inkscape:showpageshadow="0"
     inkscape:pageopacity="0"
     inkscape:pagecheckerboard="0"
     inkscape:deskcolor="#505050"
     inkscape:document-units="px" /><defs
     id="defs1" /><g
     inkscape:label="Layer 1"
     inkscape:groupmode="layer"
     id="layer1"><path
       id="path7"
       style="fill:#28c3a5;fill-opacity:1;stroke:#000000;stroke-width:0.409769"
       d="m 396.91734,187.54399 64.07921,148.94632 c 0,0 13.14999,35.94654 -8.98476,53.68839 -22.13472,17.74187 -163.82828,107.18008 -163.82828,107.18008 0,0 -36.53557,13.78608 -64.00237,-1.55241 C 196.71436,480.46788 58.026513,389.26289 58.026513,389.26289 c 0,0 -25.174236,-23.14847 0.9809,-54.31063 L 114.63354,307.54649 54.963247,157.99623 c 0,0 -6.272276,-24.88307 12.756318,-46.43552 L 228.46462,14.174266 c 0,0 30.31427,-10.5122381 49.15939,-1.725557 m -2.102,-1.690953 165.43583,93.344994 c 0,0 32.66318,25.97029 5.10291,57.66634 l -49.63028,26.2785" /></g></svg>
